<mxfile host="app.diagrams.net" modified="2023-07-04T20:14:25.018Z" agent="Mozilla/5.0 (Windows NT 10.0; Win64; x64) AppleWebKit/537.36 (KHTML, like Gecko) Chrome/114.0.0.0 Safari/537.36" etag="WvxtEVcw0oiSsViXJ_li" version="21.3.2" type="device">
  <diagram name="Страница 1" id="_Xev99-toary91ElP8EG">
    <mxGraphModel dx="1050" dy="483" grid="1" gridSize="10" guides="1" tooltips="1" connect="1" arrows="1" fold="1" page="1" pageScale="1" pageWidth="827" pageHeight="1169" math="0" shadow="0">
      <root>
        <mxCell id="0" />
        <mxCell id="1" parent="0" />
        <mxCell id="QE-rO3gKJ7xh24601F_6-15" value="" style="edgeStyle=orthogonalEdgeStyle;rounded=0;orthogonalLoop=1;jettySize=auto;html=1;" edge="1" parent="1" source="QE-rO3gKJ7xh24601F_6-1" target="QE-rO3gKJ7xh24601F_6-4">
          <mxGeometry relative="1" as="geometry" />
        </mxCell>
        <mxCell id="QE-rO3gKJ7xh24601F_6-1" value="start" style="ellipse;whiteSpace=wrap;html=1;fontSize=14;" vertex="1" parent="1">
          <mxGeometry x="280" y="10" width="120" height="50" as="geometry" />
        </mxCell>
        <mxCell id="QE-rO3gKJ7xh24601F_6-17" value="" style="edgeStyle=orthogonalEdgeStyle;rounded=0;orthogonalLoop=1;jettySize=auto;html=1;" edge="1" parent="1" source="QE-rO3gKJ7xh24601F_6-3" target="QE-rO3gKJ7xh24601F_6-7">
          <mxGeometry relative="1" as="geometry" />
        </mxCell>
        <mxCell id="QE-rO3gKJ7xh24601F_6-3" value="for i=0&lt;br&gt;i&amp;lt;stringArray.Lenght&lt;br&gt;i++" style="shape=hexagon;perimeter=hexagonPerimeter2;whiteSpace=wrap;html=1;fixedSize=1;" vertex="1" parent="1">
          <mxGeometry x="260" y="200" width="160" height="71" as="geometry" />
        </mxCell>
        <mxCell id="QE-rO3gKJ7xh24601F_6-16" value="" style="edgeStyle=orthogonalEdgeStyle;rounded=0;orthogonalLoop=1;jettySize=auto;html=1;" edge="1" parent="1" source="QE-rO3gKJ7xh24601F_6-4" target="QE-rO3gKJ7xh24601F_6-3">
          <mxGeometry relative="1" as="geometry" />
        </mxCell>
        <mxCell id="QE-rO3gKJ7xh24601F_6-4" value="string Array []&lt;br&gt;rez []&lt;br&gt;n=0" style="shape=parallelogram;perimeter=parallelogramPerimeter;whiteSpace=wrap;html=1;fixedSize=1;" vertex="1" parent="1">
          <mxGeometry x="280" y="110" width="120" height="50" as="geometry" />
        </mxCell>
        <mxCell id="QE-rO3gKJ7xh24601F_6-5" style="edgeStyle=orthogonalEdgeStyle;rounded=0;orthogonalLoop=1;jettySize=auto;html=1;exitX=0.5;exitY=1;exitDx=0;exitDy=0;" edge="1" parent="1" source="QE-rO3gKJ7xh24601F_6-3" target="QE-rO3gKJ7xh24601F_6-3">
          <mxGeometry relative="1" as="geometry" />
        </mxCell>
        <mxCell id="QE-rO3gKJ7xh24601F_6-6" style="edgeStyle=orthogonalEdgeStyle;rounded=0;orthogonalLoop=1;jettySize=auto;html=1;exitX=0.5;exitY=1;exitDx=0;exitDy=0;" edge="1" parent="1" source="QE-rO3gKJ7xh24601F_6-4" target="QE-rO3gKJ7xh24601F_6-4">
          <mxGeometry relative="1" as="geometry" />
        </mxCell>
        <mxCell id="QE-rO3gKJ7xh24601F_6-11" value="" style="edgeStyle=orthogonalEdgeStyle;rounded=0;orthogonalLoop=1;jettySize=auto;html=1;entryX=0;entryY=0.5;entryDx=0;entryDy=0;" edge="1" parent="1" source="QE-rO3gKJ7xh24601F_6-7" target="QE-rO3gKJ7xh24601F_6-12">
          <mxGeometry relative="1" as="geometry">
            <mxPoint x="535" y="375" as="targetPoint" />
          </mxGeometry>
        </mxCell>
        <mxCell id="QE-rO3gKJ7xh24601F_6-18" value="" style="edgeStyle=orthogonalEdgeStyle;rounded=0;orthogonalLoop=1;jettySize=auto;html=1;" edge="1" parent="1" source="QE-rO3gKJ7xh24601F_6-7" target="QE-rO3gKJ7xh24601F_6-8">
          <mxGeometry relative="1" as="geometry" />
        </mxCell>
        <mxCell id="QE-rO3gKJ7xh24601F_6-7" value="&lt;div style=&quot;background-color: rgb(255, 255, 255); line-height: 27px;&quot;&gt;&lt;font style=&quot;font-size: 12px;&quot;&gt;&amp;nbsp;i&lt;font style=&quot;&quot;&gt;f&amp;nbsp;&lt;span style=&quot;color: rgb(0, 16, 128);&quot;&gt;stringArray&lt;/span&gt;&lt;span style=&quot;color: rgb(34, 34, 34);&quot;&gt;[&lt;/span&gt;&lt;span style=&quot;color: rgb(0, 16, 128);&quot;&gt;i&lt;/span&gt;&lt;span style=&quot;color: rgb(34, 34, 34);&quot;&gt;]&lt;/span&gt;.&lt;span style=&quot;color: rgb(34, 34, 34);&quot;&gt;Length&lt;/span&gt; &amp;lt;=&lt;span style=&quot;color: rgb(9, 134, 88);&quot;&gt;3&lt;/span&gt;&lt;/font&gt;&lt;/font&gt;&lt;/div&gt;" style="rhombus;whiteSpace=wrap;html=1;" vertex="1" parent="1">
          <mxGeometry x="220" y="330" width="240" height="110" as="geometry" />
        </mxCell>
        <mxCell id="QE-rO3gKJ7xh24601F_6-21" value="" style="edgeStyle=orthogonalEdgeStyle;rounded=0;orthogonalLoop=1;jettySize=auto;html=1;entryX=0;entryY=0.5;entryDx=0;entryDy=0;" edge="1" parent="1" source="QE-rO3gKJ7xh24601F_6-8" target="QE-rO3gKJ7xh24601F_6-7">
          <mxGeometry relative="1" as="geometry">
            <mxPoint x="210" y="380" as="targetPoint" />
            <Array as="points">
              <mxPoint x="340" y="730" />
              <mxPoint x="120" y="730" />
              <mxPoint x="120" y="385" />
            </Array>
          </mxGeometry>
        </mxCell>
        <mxCell id="QE-rO3gKJ7xh24601F_6-8" value="rez [j] = steingArray[i]&lt;br&gt;j++" style="rounded=0;whiteSpace=wrap;html=1;" vertex="1" parent="1">
          <mxGeometry x="280" y="540" width="120" height="60" as="geometry" />
        </mxCell>
        <mxCell id="QE-rO3gKJ7xh24601F_6-26" value="" style="edgeStyle=orthogonalEdgeStyle;rounded=0;orthogonalLoop=1;jettySize=auto;html=1;" edge="1" parent="1" source="QE-rO3gKJ7xh24601F_6-12" target="QE-rO3gKJ7xh24601F_6-25">
          <mxGeometry relative="1" as="geometry" />
        </mxCell>
        <mxCell id="QE-rO3gKJ7xh24601F_6-12" value="print rez" style="shape=process;whiteSpace=wrap;html=1;backgroundOutline=1;" vertex="1" parent="1">
          <mxGeometry x="550" y="355" width="120" height="60" as="geometry" />
        </mxCell>
        <mxCell id="QE-rO3gKJ7xh24601F_6-22" value="no" style="text;html=1;align=center;verticalAlign=middle;resizable=0;points=[];autosize=1;strokeColor=none;fillColor=none;" vertex="1" parent="1">
          <mxGeometry x="470" y="350" width="40" height="30" as="geometry" />
        </mxCell>
        <mxCell id="QE-rO3gKJ7xh24601F_6-23" value="yes" style="text;html=1;align=center;verticalAlign=middle;resizable=0;points=[];autosize=1;strokeColor=none;fillColor=none;" vertex="1" parent="1">
          <mxGeometry x="340" y="478" width="40" height="30" as="geometry" />
        </mxCell>
        <mxCell id="QE-rO3gKJ7xh24601F_6-24" value="Описание метода symbol" style="rounded=0;whiteSpace=wrap;html=1;" vertex="1" parent="1">
          <mxGeometry y="20" width="170" height="60" as="geometry" />
        </mxCell>
        <mxCell id="QE-rO3gKJ7xh24601F_6-25" value="end" style="rounded=1;whiteSpace=wrap;html=1;" vertex="1" parent="1">
          <mxGeometry x="747" y="360" width="73" height="50" as="geometry" />
        </mxCell>
        <mxCell id="QE-rO3gKJ7xh24601F_6-27" value="start" style="rounded=1;whiteSpace=wrap;html=1;" vertex="1" parent="1">
          <mxGeometry x="280" y="5" width="120" height="60" as="geometry" />
        </mxCell>
      </root>
    </mxGraphModel>
  </diagram>
</mxfile>
